<?xml version="1.0" encoding="UTF-8" standalone="no"?>
<!DOCTYPE svg PUBLIC "-//W3C//DTD SVG 1.1//EN" "http://www.w3.org/Graphics/SVG/1.1/DTD/svg11.dtd">
<svg width="100%" height="100%" viewBox="0 0 801 1524" version="1.1" xmlns="http://www.w3.org/2000/svg" xmlns:xlink="http://www.w3.org/1999/xlink" xml:space="preserve" xmlns:serif="http://www.serif.com/" style="fill-rule:evenodd;clip-rule:evenodd;stroke-linejoin:round;stroke-miterlimit:2;">
    <g transform="matrix(1,0,0,1,-943.516,-343.819)">
        <path d="M1155.25,745.189L1155.25,1270.57L1436.82,990.781L1705.06,990.781L1329.34,1354.06L1732.59,1855.9L1473.23,1855.9L1187.23,1490.85L1155.25,1522.82L1155.25,1855.9L955.406,1855.9L955.406,1091.34L1155.25,745.189ZM1155.25,670.319L955.406,1016.47L955.406,911.407L1155.25,565.261L1155.25,670.319ZM1155.25,490.391L955.406,836.538L955.406,731.479L1155.25,385.333L1155.25,490.391ZM1129.13,355.709L955.406,656.609L955.406,355.709L1129.13,355.709Z" style="fill:rgb(246,180,81);fill-rule:nonzero;stroke:black;stroke-width:23.78px;"/>
    </g>
</svg>
