<?xml version="1.0" encoding="UTF-8" standalone="no"?>
<!DOCTYPE svg PUBLIC "-//W3C//DTD SVG 1.1//EN" "http://www.w3.org/Graphics/SVG/1.1/DTD/svg11.dtd">
<svg width="100%" height="100%" viewBox="0 0 2738 1049" version="1.1" xmlns="http://www.w3.org/2000/svg" xmlns:xlink="http://www.w3.org/1999/xlink" xml:space="preserve" xmlns:serif="http://www.serif.com/" style="fill-rule:evenodd;clip-rule:evenodd;stroke-linejoin:round;stroke-miterlimit:2;">
    <g transform="matrix(1,0,0,1,10.1509,-454.335)">
        <g transform="matrix(1.19892,0,0,1.19892,-538.066,-93.1554)">
            <path d="M561.121,468.859L561.121,965.955L714.11,813.93L859.861,813.93L655.714,1011.32L874.822,1284L733.898,1284L578.495,1085.64L561.121,1103.02L561.121,1284L452.532,1284L452.532,468.859L561.121,468.859Z" style="fill:rgb(246,179,79);fill-rule:nonzero;"/>
            <path d="M573.327,1108.07L573.327,1284C573.327,1290.74 567.862,1296.21 561.121,1296.21L452.532,1296.21C445.79,1296.21 440.326,1290.74 440.326,1284L440.326,468.859C440.326,462.118 445.79,456.653 452.532,456.653L561.121,456.653C567.862,456.653 573.327,462.118 573.327,468.859L573.327,936.618L705.507,805.272C707.794,803 710.887,801.724 714.11,801.724L859.861,801.724C864.835,801.724 869.312,804.743 871.177,809.354C873.042,813.966 871.922,819.248 868.346,822.705L672.204,1012.36L884.337,1276.35C887.279,1280.02 887.859,1285.04 885.829,1289.28C883.799,1293.51 879.519,1296.21 874.822,1296.21L733.898,1296.21C730.146,1296.21 726.603,1294.48 724.289,1291.53L577.384,1104.02L573.327,1108.07ZM548.915,481.065L464.738,481.065L464.738,1271.79L548.915,1271.79L548.915,1103.02C548.915,1099.78 550.201,1096.68 552.49,1094.39L569.864,1077.01C572.334,1074.54 575.745,1073.25 579.232,1073.46C582.719,1073.67 585.949,1075.37 588.103,1078.12L739.841,1271.79L849.356,1271.79L646.199,1018.97C642.247,1014.05 642.694,1006.93 647.229,1002.55L829.677,826.137L719.144,826.137L569.724,974.613C566.227,978.088 560.983,979.118 556.432,977.225C551.88,975.331 548.915,970.885 548.915,965.955L548.915,481.065Z"/>
            <path d="M1274.43,813.93L1383.5,813.93L1383.5,1284L1274.43,1284L1274.43,1234.77C1229.71,1276.6 1181.61,1297.51 1130.13,1297.51C1065.13,1297.51 1011.4,1274.03 968.933,1227.05C926.784,1179.11 905.71,1119.27 905.71,1047.52C905.71,977.055 926.784,918.337 968.933,871.362C1011.08,824.387 1063.85,800.9 1127.23,800.9C1181.93,800.9 1230.99,823.422 1274.43,868.466L1274.43,813.93ZM1016.71,1047.52C1016.71,1092.56 1028.78,1129.24 1052.91,1157.55C1077.68,1186.19 1108.89,1200.51 1146.54,1200.51C1186.75,1200.51 1219.25,1186.67 1244.03,1159C1268.8,1130.37 1281.19,1094.01 1281.19,1049.93C1281.19,1005.85 1268.8,969.494 1244.03,940.859C1219.25,912.867 1187.08,898.871 1147.5,898.871C1110.18,898.871 1078.97,913.028 1053.87,941.342C1029.1,969.977 1016.71,1005.37 1016.71,1047.52Z" style="fill:rgb(246,179,79);fill-rule:nonzero;"/>
            <path d="M1262.22,1261.31C1246.32,1273.75 1230.02,1283.76 1213.35,1291.38C1186.6,1303.62 1158.85,1309.72 1130.13,1309.72C1096.1,1309.72 1065.01,1303.57 1036.83,1291.36C1008.17,1278.94 982.499,1260.26 959.766,1235.11C936.937,1209.14 920,1179.85 908.953,1147.23C898.679,1116.89 893.504,1083.66 893.504,1047.52C893.504,1011.91 898.707,979.184 909.033,949.33C920.094,917.349 937.03,888.641 959.847,863.21C982.161,838.342 1007.32,819.737 1035.26,807.318C1063.12,794.934 1093.77,788.694 1127.23,788.694C1157.47,788.694 1186.1,795.162 1213.11,808.087C1230.12,816.227 1246.5,826.941 1262.22,840.26L1262.22,813.93C1262.22,807.189 1267.69,801.724 1274.43,801.724L1383.5,801.724C1390.24,801.724 1395.71,807.189 1395.71,813.93L1395.71,1284C1395.71,1290.74 1390.24,1296.21 1383.5,1296.21L1274.43,1296.21C1267.69,1296.21 1262.22,1290.74 1262.22,1284L1262.22,1261.31ZM1286.64,826.137L1286.64,868.466C1286.64,873.444 1283.61,877.922 1279,879.785C1274.38,881.648 1269.1,880.522 1265.64,876.939C1245.84,856.405 1224.84,840.764 1202.57,830.108C1178.88,818.769 1153.76,813.106 1127.23,813.106C1097.38,813.106 1070.03,818.58 1045.17,829.626C1020.27,840.694 997.905,857.35 978.018,879.514C957.404,902.487 942.097,928.418 932.104,957.31C922.618,984.734 917.916,1014.81 917.916,1047.52C917.916,1080.82 922.61,1111.45 932.075,1139.4C942.081,1168.94 957.423,1195.47 977.987,1218.87C998.151,1241.17 1020.98,1257.89 1046.53,1268.96C1071.77,1279.89 1099.64,1285.31 1130.13,1285.31C1155.35,1285.31 1179.71,1279.92 1203.2,1269.18C1224.9,1259.26 1245.85,1244.79 1266.09,1225.86C1269.64,1222.54 1274.83,1221.64 1279.29,1223.58C1283.75,1225.51 1286.64,1229.91 1286.64,1234.77L1286.64,1271.79L1371.3,1271.79L1371.3,826.137L1286.64,826.137ZM1004.51,1047.52C1004.51,1070.18 1007.42,1090.84 1013.18,1109.51C1019.7,1130.68 1029.86,1149.33 1043.62,1165.47C1057.25,1181.23 1072.62,1192.96 1089.72,1200.82C1106.89,1208.72 1125.82,1212.71 1146.54,1212.71C1167.91,1212.71 1187.26,1209.06 1204.63,1201.88C1223.01,1194.27 1239.18,1182.71 1253.12,1167.14C1267.23,1150.84 1277.57,1132.42 1284.27,1111.73C1290.32,1093.02 1293.39,1072.42 1293.39,1049.93C1293.39,1027.44 1290.32,1006.84 1284.27,988.128C1277.57,967.439 1267.23,949.024 1253.26,932.873C1239.32,917.128 1223.36,905.492 1205.31,897.799C1187.99,890.416 1168.73,886.665 1147.5,886.665C1126.92,886.665 1108.05,890.63 1090.86,898.465C1073.83,906.223 1058.44,917.789 1044.74,933.245C1030.84,949.307 1020.6,967.198 1013.9,987.024C1007.66,1005.49 1004.51,1025.65 1004.51,1047.52ZM1028.92,1047.52C1028.92,1028.48 1031.6,1010.91 1037.03,994.837C1042.71,978.023 1051.4,962.855 1063.1,949.328C1074.31,936.692 1086.94,927.077 1100.98,920.679C1115.1,914.247 1130.61,911.077 1147.5,911.077C1165.2,911.077 1181.29,914.098 1195.74,920.256C1210.51,926.556 1223.55,936.14 1234.88,948.949C1246.63,962.523 1255.37,978.125 1261.04,995.645C1266.36,1012.08 1268.98,1030.18 1268.98,1049.93C1268.98,1069.68 1266.36,1087.78 1261.04,1104.22C1255.37,1121.74 1246.63,1137.34 1234.79,1151.02C1223.53,1163.59 1210.33,1173.1 1195.29,1179.32C1180.73,1185.35 1164.47,1188.3 1146.54,1188.3C1129.54,1188.3 1114,1185.12 1099.91,1178.64C1085.87,1172.18 1073.3,1162.46 1062.14,1149.57C1050.57,1135.99 1042.02,1120.21 1036.51,1102.33C1031.42,1085.82 1028.92,1067.55 1028.92,1047.52Z"/>
            <path d="M1588.13,813.93L1711.2,1082.27L1843.92,770.978L1977.6,1082.27L2099.22,813.93L2220.84,813.93L1974.71,1319.23L1843.92,1016.63L1711.68,1319.23L1466.03,813.93L1588.13,813.93Z" style="fill:rgb(246,179,79);fill-rule:nonzero;"/>
            <path d="M1710.79,1052.1L1832.69,766.19C1834.61,761.696 1839.02,758.778 1843.9,758.771C1848.79,758.765 1853.21,761.672 1855.13,766.161L1977.9,1052.03L2088.11,808.892C2090.08,804.528 2094.43,801.724 2099.22,801.724L2220.84,801.724C2225.05,801.724 2228.96,803.892 2231.19,807.46C2233.42,811.027 2233.66,815.493 2231.82,819.276L1985.68,1324.58C1983.59,1328.86 1979.2,1331.54 1974.43,1331.43C1969.66,1331.33 1965.39,1328.45 1963.5,1324.07L1843.86,1047.25L1722.87,1324.12C1720.96,1328.48 1716.69,1331.34 1711.93,1331.43C1707.17,1331.53 1702.79,1328.85 1700.7,1324.57L1455.05,819.267C1453.21,815.484 1453.45,811.021 1455.68,807.456C1457.91,803.89 1461.82,801.724 1466.03,801.724L1588.13,801.724C1592.9,801.724 1597.24,804.505 1599.23,808.842L1710.79,1052.1ZM1843.96,802.004L1722.43,1087.05C1720.53,1091.5 1716.19,1094.41 1711.36,1094.47C1706.53,1094.54 1702.12,1091.75 1700.1,1087.35L1580.3,826.137L1485.54,826.137L1711.09,1290.1L1832.73,1011.74C1834.68,1007.29 1839.08,1004.41 1843.94,1004.42C1848.8,1004.43 1853.19,1007.33 1855.12,1011.79L1975.37,1290L2201.32,826.137L2107.09,826.137L1988.72,1087.31C1986.73,1091.71 1982.32,1094.52 1977.48,1094.47C1972.65,1094.42 1968.3,1091.53 1966.39,1087.08L1843.96,802.004Z"/>
            <path d="M2707.32,1074.54L2370.45,1074.54C2373.35,1113.15 2385.9,1143.88 2408.1,1166.72C2430.3,1189.25 2458.77,1200.51 2493.52,1200.51C2520.55,1200.51 2542.91,1194.07 2560.61,1181.2C2577.98,1168.33 2597.77,1144.52 2619.97,1109.78L2711.66,1160.93C2697.51,1185.06 2682.55,1205.74 2666.78,1222.95C2651.02,1240.16 2634.12,1254.32 2616.11,1265.42C2598.09,1276.52 2578.62,1284.64 2557.71,1289.79C2536.8,1294.94 2514.11,1297.51 2489.66,1297.51C2419.52,1297.51 2363.22,1274.99 2320.74,1229.95C2278.27,1184.58 2257.04,1124.41 2257.04,1049.45C2257.04,975.125 2277.63,914.958 2318.81,868.949C2360.32,823.583 2415.34,800.9 2483.87,800.9C2553.04,800.9 2607.74,822.939 2647.96,867.018C2687.86,910.776 2707.8,971.425 2707.8,1048.96L2707.32,1074.54ZM2595.84,985.742C2580.71,927.828 2544.2,898.871 2486.28,898.871C2473.09,898.871 2460.7,900.882 2449.12,904.904C2437.54,908.926 2427,914.717 2417.51,922.278C2408.02,929.839 2399.89,938.928 2393.14,949.546C2386.38,960.164 2381.23,972.229 2377.69,985.742L2595.84,985.742Z" style="fill:rgb(246,179,79);fill-rule:nonzero;"/>
            <path d="M2384.05,1086.75C2385.76,1098.62 2388.55,1109.6 2392.44,1119.68C2398.17,1134.5 2406.29,1147.35 2416.79,1158.15C2426.93,1168.44 2438.53,1176.1 2451.6,1181.1C2464.23,1185.94 2478.21,1188.3 2493.52,1188.3C2505.12,1188.3 2515.78,1187.03 2525.49,1184.42C2535.94,1181.62 2545.26,1177.27 2553.34,1171.39C2561.03,1165.7 2569.2,1157.64 2577.91,1147.3C2587.87,1135.49 2598.45,1120.78 2609.68,1103.2C2613.16,1097.76 2620.27,1095.97 2625.91,1099.12L2717.61,1150.27C2720.48,1151.87 2722.58,1154.56 2723.44,1157.73C2724.3,1160.9 2723.85,1164.28 2722.19,1167.11C2715.24,1178.96 2708.1,1190 2700.77,1200.23C2692.67,1211.53 2684.34,1221.85 2675.78,1231.19C2667.73,1239.98 2659.4,1248.01 2650.79,1255.28C2641.68,1262.97 2632.25,1269.81 2622.51,1275.81C2612.91,1281.72 2602.93,1286.84 2592.56,1291.16C2582.29,1295.43 2571.65,1298.93 2560.63,1301.64C2549.33,1304.42 2537.54,1306.49 2525.25,1307.84C2513.82,1309.09 2501.95,1309.72 2489.66,1309.72C2454.22,1309.72 2422.16,1304.17 2393.46,1293.19C2362.34,1281.29 2335.14,1263 2311.83,1238.29C2288.29,1213.14 2270.93,1183.69 2259.76,1149.91C2249.84,1119.88 2244.83,1086.4 2244.83,1049.45C2244.83,1012.81 2249.69,979.492 2259.33,949.478C2270.13,915.804 2286.94,886.254 2309.81,860.71C2332.48,835.924 2358.98,817.542 2389.26,805.532C2417.47,794.346 2449,788.694 2483.87,788.694C2518.62,788.694 2549.88,794.06 2577.66,804.667C2608.27,816.354 2634.71,834.392 2656.98,858.794C2679.6,883.602 2696.19,913.525 2706.67,948.615C2715.53,978.314 2720.01,1011.76 2720.01,1048.96C2720.01,1049.04 2720.01,1049.12 2720.01,1049.19L2719.53,1074.77C2719.4,1081.42 2713.97,1086.75 2707.32,1086.75L2384.05,1086.75ZM2695.34,1062.34L2695.6,1048.96C2695.6,1014.35 2691.52,983.226 2683.27,955.598C2673.91,924.224 2659.16,897.422 2638.94,875.245C2619.3,853.714 2595.97,837.787 2568.95,827.473C2543.76,817.853 2515.39,813.106 2483.87,813.106C2452.32,813.106 2423.78,818.106 2398.26,828.225C2371.4,838.876 2347.93,855.207 2327.91,877.09C2307.4,899.999 2292.3,926.621 2282.57,956.938C2273.66,984.709 2269.24,1015.55 2269.24,1049.45C2269.24,1083.58 2273.78,1114.52 2282.95,1142.25C2292.96,1172.57 2308.52,1199.03 2329.62,1221.57C2350.32,1243.53 2374.51,1259.81 2402.18,1270.39C2428.27,1280.37 2457.44,1285.31 2489.66,1285.31C2501.04,1285.31 2512.01,1284.73 2522.59,1283.57C2533.78,1282.35 2544.51,1280.47 2554.79,1277.94C2564.59,1275.53 2574.05,1272.42 2583.17,1268.62C2592.36,1264.8 2601.2,1260.27 2609.7,1255.03C2618.43,1249.65 2626.88,1243.51 2635.04,1236.62C2642.88,1230.01 2650.46,1222.7 2657.78,1214.7C2665.71,1206.05 2673.42,1196.48 2680.92,1186.01C2685.59,1179.5 2690.17,1172.64 2694.67,1165.43L2623.97,1125.99C2614.39,1140.4 2605.25,1152.75 2596.58,1163.03C2586.43,1175.08 2576.83,1184.37 2567.78,1191.07C2557.26,1198.73 2545.28,1204.39 2531.82,1208C2520.18,1211.12 2507.42,1212.71 2493.52,1212.71C2475.01,1212.71 2458.13,1209.74 2442.88,1203.9C2426.55,1197.65 2412.06,1188.13 2399.35,1175.23C2386.53,1162.04 2376.62,1146.46 2369.67,1128.48C2363.57,1112.69 2359.75,1095.03 2358.28,1075.46C2358.03,1072.07 2359.2,1068.73 2361.51,1066.24C2363.82,1063.75 2367.06,1062.34 2370.45,1062.34L2695.34,1062.34ZM2595.84,997.948C2599.62,997.948 2603.18,996.196 2605.5,993.204C2607.81,990.212 2608.6,986.317 2607.65,982.659C2599.41,951.129 2585.16,927.549 2565.41,911.601C2545.07,895.175 2518.76,886.665 2486.28,886.665C2479.15,886.665 2472.23,887.202 2465.53,888.269C2458.49,889.389 2451.69,891.091 2445.12,893.373C2438.69,895.605 2432.55,898.329 2426.7,901.541C2420.81,904.776 2415.21,908.505 2409.9,912.731C2404.57,916.978 2399.63,921.659 2395.07,926.773C2390.62,931.765 2386.54,937.17 2382.84,942.993C2379.01,949.007 2375.65,955.44 2372.76,962.295C2370.05,968.707 2367.76,975.491 2365.89,982.65C2364.93,986.309 2365.72,990.206 2368.03,993.2C2370.34,996.195 2373.91,997.948 2377.69,997.948L2595.84,997.948ZM2579.23,973.536C2572.45,955.248 2562.81,940.882 2550.07,930.593C2533.72,917.385 2512.39,911.077 2486.28,911.077C2480.47,911.077 2474.83,911.508 2469.36,912.378C2463.76,913.269 2458.35,914.619 2453.12,916.435C2448,918.213 2443.11,920.381 2438.45,922.94C2433.77,925.508 2429.33,928.47 2425.12,931.825C2420.87,935.209 2416.93,938.939 2413.3,943.013C2409.71,947.04 2406.42,951.403 2403.43,956.099C2400.33,960.985 2397.6,966.213 2395.25,971.783L2394.53,973.536L2579.23,973.536Z"/>
        </g>
    </g>
</svg>
